<?xml version="1.0" encoding="UTF-8"?>
<svg id="uuid-465259f6-e1ab-4f68-8e15-eed561bf34d4" data-name="Layer 1" xmlns="http://www.w3.org/2000/svg" viewBox="0 0 544.65 134.49">
  <g>
    <path d="M152.8,51.87v58.96h-23.01v-58.96h23.01Z" style="fill: #fff;"/>
    <path d="M230.92,51.87c2.02,0,3.94.4,5.77,1.19,1.83.79,3.44,1.88,4.83,3.28,1.39,1.39,2.5,3,3.32,4.83.82,1.83,1.23,3.78,1.23,5.85v13.68c0,2.24-.41,4.27-1.23,6.1-.82,1.83-1.92,3.43-3.32,4.79-1.39,1.37-3,2.42-4.83,3.15-1.83.74-3.75,1.11-5.77,1.11h-31.69l-9.17-16.79h29.48c1.42,0,2.5-.41,3.23-1.23.74-.82,1.11-1.83,1.11-3.03v-.41c0-1.2-.34-2.21-1.02-3.03-.68-.82-1.79-1.23-3.32-1.23h-32.02v40.7h-23.01v-58.96h66.41Z" style="fill: #fff;"/>
    <path d="M323.13,73.82c5.29,0,9.14,1.39,11.55,4.18,2.4,2.78,3.6,6.42,3.6,10.89v6.8c0,1.86-.3,3.69-.9,5.49-.6,1.8-1.51,3.43-2.74,4.87-1.23,1.45-2.78,2.61-4.67,3.48-1.88.87-4.16,1.31-6.84,1.31h-66.82v-16.62h56.1c1.58,0,2.59-.29,3.03-.86.44-.57.65-1.21.65-1.92,0-.66-.22-1.26-.65-1.8-.44-.55-1.45-.82-3.03-.82h-42.34c-2.08,0-4.04-.31-5.9-.94-1.86-.63-3.47-1.52-4.83-2.66-1.37-1.15-2.44-2.51-3.23-4.09-.79-1.58-1.19-3.36-1.19-5.32v-9.5c0-2.07.4-4,1.19-5.77.79-1.77,1.87-3.3,3.23-4.59,1.36-1.28,2.97-2.28,4.83-2.99,1.85-.71,3.82-1.06,5.9-1.06h65.27v16.62h-54.54c-1.58,0-2.59.26-3.03.78-.44.52-.66,1.13-.66,1.84,0,.65.22,1.27.66,1.84.44.57,1.45.86,3.03.86h42.34Z" style="fill: #fff;"/>
    <path d="M432.87,51.87v40.95c0,2.51-.48,4.86-1.43,7.04-.96,2.18-2.25,4.09-3.89,5.73-1.64,1.64-3.56,2.92-5.77,3.85-2.21.93-4.54,1.39-7,1.39h-47.99c-2.46,0-4.78-.46-6.96-1.39-2.18-.93-4.09-2.21-5.73-3.85-1.64-1.64-2.94-3.55-3.89-5.73-.96-2.18-1.43-4.53-1.43-7.04v-40.95h23.01v35.38c0,1.42.5,2.66,1.52,3.73,1.01,1.06,2.25,1.6,3.73,1.6h27.52c1.47,0,2.73-.53,3.77-1.6,1.04-1.06,1.56-2.31,1.56-3.73v-35.38h23.01Z" style="fill: #fff;"/>
    <path d="M544.65,51.87v58.96h-23.01v-36.11l-18.75,36.11h-17.03l-18.67-36.11v36.11h-23.01v-58.96h31.53l18.75,38.65,20.06-38.65h30.14Z" style="fill: #fff;"/>
  </g>
  <g>
    <path d="M54.34,0v24.11s-19.05,5.77-47.21,27.85v11.46s27.93-22.41,47.21-24.71v21.65s-28.87,6.11-54.34,25.47v-42.92S26.41,8.15,54.34,0Z" style="fill: #fff;"/>
    <path d="M0,93.48v41.01h54.34v-22.67s-19.36-.76-45.85,7.39v-12.23s18.34-8.15,45.85-10.19v-23.09S21.03,80.66,0,93.48Z" style="fill: #fff;"/>
    <path d="M110.54,42.92v19.49S77.6,28.36,54.34,24.11V0s27.17,7.9,56.21,42.92Z" style="fill: #fff;"/>
    <path d="M54.34,38.72s32.01,6.88,56.21,29.8v39.73s-31.41-11.72-56.21-11.46v-23.09s38.12,9.85,42.96,14.94v-10.44s-19.7-13.75-42.96-17.83v-21.65Z" style="fill: #fff;"/>
    <path d="M54.34,111.82s45.76,2.29,56.21,6.62v16.05h-56.21v-22.67Z" style="fill: #fff;"/>
  </g>
</svg>